# xmcd
#
# Track frame offsets:
# 150
# 13195
# 16726
# 30605
# 49535
# 68587
# 85946
# 99961
# 117122
# 135321
# 152457
# 170069
# 187132
# 199340
# 217728
#
# Disc length: 3132 seconds
#
#
# Revision: 0
# Processed by: cddbd v1.5.1PL2 Copyright (c) Steve Scherf et al.
# Submitted via: FreeRIP 2.944 
#
DISCID=b80c3a0f
DTITLE=Neal McCoy - That's Life
DYEAR=2005
DGENRE=Country
TTITLE0=Got Mud
TTITLE1=Intro (General Tommy Franks)
TTITLE2=The Last Day of a Dying Breed
TTITLE3=That's Life
TTITLE4=All Over Again
TTITLE5=Billy's Got His Beer Goggles On
TTITLE6=That's a Picture
TTITLE7=You Let Me Be The Hero
TTITLE8=Tail On The Tailgate
TTITLE9=Tails I Love
TTITLE10=Jessie
TTITLE11=You're My America
TTITLE12=Head South
TTITLE13=Hillybilly Rap (Live )
TTITLE14=Billy's Got His Beer Goggles On ( Real Version)
EXTD=
EXTT0=
EXTT1=
EXTT2=
EXTT3=
EXTT4=
EXTT5=
EXTT6=
EXTT7=
EXTT8=
EXTT9=
EXTT10=
EXTT11=
EXTT12=
EXTT13=
EXTT14=
PLAYORDER=
